<svg width="24" height="24" fill="none" xmlns="http://www.w3.org/2000/svg"><circle cx="12" cy="12" r="11.5" fill="#101010" stroke="#FF2970"/><path fill-rule="evenodd" clip-rule="evenodd" d="M9.682 5.582a1.133 1.133 0 0 1 1.857.391l.41 1.055a3.667 3.667 0 0 0 2.412 2.197l2.563.733a1.133 1.133 0 0 1 .49 1.89l-2.44 2.44 3.622 3.622a.485.485 0 1 1-.687.686l-3.621-3.622-2.44 2.44a1.133 1.133 0 0 1-1.89-.49l-.732-2.564a3.669 3.669 0 0 0-2.198-2.41l-1.055-.41a1.133 1.133 0 0 1-.39-1.858l4.1-4.1Zm4.266 8.36-.003.002-.004.004-2.78 2.779a.16.16 0 0 1-.155.042.163.163 0 0 1-.115-.112l-.731-2.564a4.64 4.64 0 0 0-2.78-3.049l-1.055-.41a.162.162 0 0 1-.056-.266l4.1-4.1a.162.162 0 0 1 .265.056l.41 1.056a4.64 4.64 0 0 0 3.05 2.779l2.563.732a.163.163 0 0 1 .112.198.162.162 0 0 1-.042.072l-2.78 2.78Z" fill="#FF2970"/></svg>