<svg width="115" height="31" viewBox="0 0 115 31" fill="none" xmlns="http://www.w3.org/2000/svg">
<path d="M11.064 26.64C10.152 26.64 9.352 26.472 8.664 26.136C7.992 25.816 7.472 25.344 7.104 24.72C6.752 24.112 6.608 23.384 6.672 22.536L6.912 18.72C6.944 17.984 6.808 17.44 6.504 17.088C6.2 16.72 5.6 16.536 4.704 16.536H1.968V14.184H4.704C5.6 14.184 6.2 14.008 6.504 13.656C6.808 13.304 6.944 12.752 6.912 12L6.672 8.16C6.624 7.312 6.776 6.584 7.128 5.976C7.48 5.352 7.992 4.88 8.664 4.56C9.336 4.24 10.136 4.08 11.064 4.08H12.432V6.432H11.28C10.624 6.432 10.112 6.584 9.744 6.888C9.376 7.192 9.208 7.664 9.24 8.304L9.48 12.144C9.544 13.136 9.28 13.928 8.688 14.52C8.096 15.112 7.264 15.408 6.192 15.408V15.288C7.248 15.288 8.072 15.592 8.664 16.2C9.272 16.792 9.544 17.584 9.48 18.576L9.24 22.416C9.224 23.024 9.392 23.488 9.744 23.808C10.112 24.128 10.624 24.288 11.28 24.288H12.432V26.64H11.064ZM15.2786 17.328C15.2786 16 15.5506 14.824 16.0946 13.8C16.6546 12.776 17.4066 11.984 18.3506 11.424C19.3106 10.848 20.3666 10.56 21.5186 10.56C22.5586 10.56 23.4626 10.768 24.2306 11.184C25.0146 11.584 25.6386 12.088 26.1026 12.696V10.776H28.8626V24H26.1026V22.032C25.6386 22.656 25.0066 23.176 24.2066 23.592C23.4066 24.008 22.4946 24.216 21.4706 24.216C20.3346 24.216 19.2946 23.928 18.3506 23.352C17.4066 22.76 16.6546 21.944 16.0946 20.904C15.5506 19.848 15.2786 18.656 15.2786 17.328ZM26.1026 17.376C26.1026 16.464 25.9106 15.672 25.5266 15C25.1586 14.328 24.6706 13.816 24.0626 13.464C23.4546 13.112 22.7986 12.936 22.0946 12.936C21.3906 12.936 20.7346 13.112 20.1266 13.464C19.5186 13.8 19.0226 14.304 18.6386 14.976C18.2706 15.632 18.0866 16.416 18.0866 17.328C18.0866 18.24 18.2706 19.04 18.6386 19.728C19.0226 20.416 19.5186 20.944 20.1266 21.312C20.7506 21.664 21.4066 21.84 22.0946 21.84C22.7986 21.84 23.4546 21.664 24.0626 21.312C24.6706 20.96 25.1586 20.448 25.5266 19.776C25.9106 19.088 26.1026 18.288 26.1026 17.376ZM39.1283 10.56C40.1683 10.56 41.0963 10.776 41.9123 11.208C42.7443 11.64 43.3923 12.28 43.8563 13.128C44.3203 13.976 44.5523 15 44.5523 16.2V24H41.8403V16.608C41.8403 15.424 41.5443 14.52 40.9523 13.896C40.3603 13.256 39.5523 12.936 38.5283 12.936C37.5043 12.936 36.6883 13.256 36.0803 13.896C35.4883 14.52 35.1923 15.424 35.1923 16.608V24H32.4563V10.776H35.1923V12.288C35.6403 11.744 36.2083 11.32 36.8963 11.016C37.6003 10.712 38.3443 10.56 39.1283 10.56ZM47.1302 17.328C47.1302 16 47.4022 14.824 47.9462 13.8C48.5062 12.776 49.2582 11.984 50.2022 11.424C51.1622 10.848 52.2262 10.56 53.3942 10.56C54.2582 10.56 55.1062 10.752 55.9382 11.136C56.7862 11.504 57.4582 12 57.9542 12.624V6.24H60.7142V24H57.9542V22.008C57.5062 22.648 56.8822 23.176 56.0822 23.592C55.2982 24.008 54.3942 24.216 53.3702 24.216C52.2182 24.216 51.1622 23.928 50.2022 23.352C49.2582 22.76 48.5062 21.944 47.9462 20.904C47.4022 19.848 47.1302 18.656 47.1302 17.328ZM57.9542 17.376C57.9542 16.464 57.7622 15.672 57.3782 15C57.0102 14.328 56.5222 13.816 55.9142 13.464C55.3062 13.112 54.6502 12.936 53.9462 12.936C53.2422 12.936 52.5862 13.112 51.9782 13.464C51.3702 13.8 50.8742 14.304 50.4902 14.976C50.1222 15.632 49.9382 16.416 49.9382 17.328C49.9382 18.24 50.1222 19.04 50.4902 19.728C50.8742 20.416 51.3702 20.944 51.9782 21.312C52.6022 21.664 53.2582 21.84 53.9462 21.84C54.6502 21.84 55.3062 21.664 55.9142 21.312C56.5222 20.96 57.0102 20.448 57.3782 19.776C57.7622 19.088 57.9542 18.288 57.9542 17.376ZM67.0438 12.696C67.4438 12.024 67.9718 11.504 68.6278 11.136C69.2998 10.752 70.0918 10.56 71.0038 10.56V13.392H70.3078C69.2358 13.392 68.4198 13.664 67.8598 14.208C67.3158 14.752 67.0438 15.696 67.0438 17.04V24H64.3078V10.776H67.0438V12.696ZM85.6388 17.064C85.6388 17.56 85.6068 18.008 85.5428 18.408H75.4388C75.5188 19.464 75.9108 20.312 76.6148 20.952C77.3188 21.592 78.1828 21.912 79.2068 21.912C80.6788 21.912 81.7188 21.296 82.3268 20.064H85.2787C84.8788 21.28 84.1508 22.28 83.0948 23.064C82.0548 23.832 80.7588 24.216 79.2068 24.216C77.9428 24.216 76.8068 23.936 75.7988 23.376C74.8068 22.8 74.0228 22 73.4468 20.976C72.8868 19.936 72.6068 18.736 72.6068 17.376C72.6068 16.016 72.8788 14.824 73.4228 13.8C73.9828 12.76 74.7588 11.96 75.7508 11.4C76.7588 10.84 77.9108 10.56 79.2068 10.56C80.4548 10.56 81.5668 10.832 82.5428 11.376C83.5188 11.92 84.2788 12.688 84.8228 13.68C85.3668 14.656 85.6388 15.784 85.6388 17.064ZM82.7828 16.2C82.7668 15.192 82.4068 14.384 81.7028 13.776C80.9988 13.168 80.1268 12.864 79.0868 12.864C78.1428 12.864 77.3348 13.168 76.6628 13.776C75.9908 14.368 75.5908 15.176 75.4628 16.2H82.7828ZM100.235 10.776L92.1233 30.216H89.2913L91.9793 23.784L86.7713 10.776H89.8193L93.5393 20.856L97.4033 10.776H100.235ZM102.468 26.64V24.288H103.62C104.276 24.288 104.788 24.128 105.156 23.808C105.524 23.488 105.692 23.024 105.66 22.416L105.42 18.576C105.356 17.584 105.62 16.792 106.212 16.2C106.82 15.592 107.652 15.288 108.708 15.288V15.408C107.636 15.408 106.804 15.112 106.212 14.52C105.62 13.928 105.356 13.136 105.42 12.144L105.66 8.304C105.692 7.664 105.524 7.192 105.156 6.888C104.804 6.584 104.292 6.432 103.62 6.432H102.468V4.08H103.836C104.764 4.08 105.564 4.24 106.236 4.56C106.908 4.88 107.42 5.352 107.772 5.976C108.14 6.584 108.292 7.312 108.228 8.16L107.988 12C107.956 12.752 108.092 13.304 108.396 13.656C108.716 14.008 109.316 14.184 110.196 14.184H112.932V16.536H110.196C109.316 16.536 108.716 16.72 108.396 17.088C108.092 17.44 107.956 17.984 107.988 18.72L108.228 22.536C108.292 23.384 108.14 24.112 107.772 24.72C107.42 25.344 106.908 25.816 106.236 26.136C105.564 26.472 104.764 26.64 103.836 26.64H102.468Z" fill="#404040"/>
</svg>
