<svg width="115" height="31" fill="none" xmlns="http://www.w3.org/2000/svg"><path d="M11.064 26.64c-.912 0-1.712-.168-2.4-.504a3.526 3.526 0 0 1-1.56-1.416c-.352-.608-.496-1.336-.432-2.184l.24-3.816c.032-.736-.104-1.28-.408-1.632-.304-.368-.904-.552-1.8-.552H1.968v-2.352h2.736c.896 0 1.496-.176 1.8-.528.304-.352.44-.904.408-1.656l-.24-3.84c-.048-.848.104-1.576.456-2.184A3.385 3.385 0 0 1 8.664 4.56c.672-.32 1.472-.48 2.4-.48h1.368v2.352H11.28c-.656 0-1.168.152-1.536.456-.368.304-.536.776-.504 1.416l.24 3.84c.064.992-.2 1.784-.792 2.376-.592.592-1.424.888-2.496.888v-.12c1.056 0 1.88.304 2.472.912.608.592.88 1.384.816 2.376l-.24 3.84c-.016.608.152 1.072.504 1.392.368.32.88.48 1.536.48h1.152v2.352h-1.368Zm4.215-9.312c0-1.328.272-2.504.816-3.528.56-1.024 1.312-1.816 2.256-2.376a6.042 6.042 0 0 1 3.168-.864c1.04 0 1.944.208 2.712.624.784.4 1.408.904 1.872 1.512v-1.92h2.76V24h-2.76v-1.968c-.464.624-1.096 1.144-1.896 1.56-.8.416-1.712.624-2.736.624a5.875 5.875 0 0 1-3.12-.864c-.944-.592-1.696-1.408-2.256-2.448-.544-1.056-.816-2.248-.816-3.576Zm10.824.048c0-.912-.192-1.704-.576-2.376-.368-.672-.856-1.184-1.464-1.536a3.862 3.862 0 0 0-1.968-.528c-.704 0-1.36.176-1.968.528-.608.336-1.104.84-1.488 1.512-.368.656-.552 1.44-.552 2.352 0 .912.184 1.712.552 2.4.384.688.88 1.216 1.488 1.584.624.352 1.28.528 1.968.528.704 0 1.36-.176 1.968-.528.608-.352 1.096-.864 1.464-1.536.384-.688.576-1.488.576-2.4Zm13.025-6.816c1.04 0 1.968.216 2.784.648a4.59 4.59 0 0 1 1.944 1.92c.464.848.696 1.872.696 3.072V24H41.84v-7.392c0-1.184-.296-2.088-.888-2.712-.592-.64-1.4-.96-2.424-.96s-1.84.32-2.448.96c-.592.624-.888 1.528-.888 2.712V24h-2.736V10.776h2.736v1.512a4.549 4.549 0 0 1 1.704-1.272 5.57 5.57 0 0 1 2.232-.456Zm8.002 6.768c0-1.328.272-2.504.816-3.528.56-1.024 1.312-1.816 2.256-2.376.96-.576 2.024-.864 3.192-.864.864 0 1.712.192 2.544.576.848.368 1.52.864 2.016 1.488V6.24h2.76V24h-2.76v-1.992c-.448.64-1.072 1.168-1.872 1.584-.784.416-1.688.624-2.712.624a6.042 6.042 0 0 1-3.168-.864c-.944-.592-1.696-1.408-2.256-2.448-.544-1.056-.816-2.248-.816-3.576Zm10.824.048c0-.912-.192-1.704-.576-2.376-.368-.672-.856-1.184-1.464-1.536a3.862 3.862 0 0 0-1.968-.528c-.704 0-1.36.176-1.968.528-.608.336-1.104.84-1.488 1.512-.368.656-.552 1.44-.552 2.352 0 .912.184 1.712.552 2.4.384.688.88 1.216 1.488 1.584.624.352 1.28.528 1.968.528.704 0 1.36-.176 1.968-.528.608-.352 1.096-.864 1.464-1.536.384-.688.576-1.488.576-2.4Zm9.09-4.68c.4-.672.928-1.192 1.584-1.56.672-.384 1.464-.576 2.376-.576v2.832h-.696c-1.072 0-1.888.272-2.448.816-.544.544-.816 1.488-.816 2.832V24h-2.736V10.776h2.736v1.92Zm18.595 4.368c0 .496-.032.944-.096 1.344H75.439c.08 1.056.472 1.904 1.176 2.544.704.64 1.568.96 2.592.96 1.472 0 2.512-.616 3.12-1.848h2.952c-.4 1.216-1.128 2.216-2.184 3-1.04.768-2.336 1.152-3.888 1.152-1.264 0-2.4-.28-3.408-.84a6.278 6.278 0 0 1-2.352-2.4c-.56-1.04-.84-2.24-.84-3.6 0-1.36.272-2.552.816-3.576.56-1.04 1.336-1.84 2.328-2.4 1.008-.56 2.16-.84 3.456-.84 1.248 0 2.36.272 3.336.816a5.746 5.746 0 0 1 2.28 2.304c.544.976.816 2.104.816 3.384Zm-2.856-.864c-.016-1.008-.376-1.816-1.08-2.424-.704-.608-1.576-.912-2.616-.912-.944 0-1.752.304-2.424.912-.672.592-1.072 1.4-1.2 2.424h7.32Zm17.452-5.424-8.112 19.44h-2.832l2.688-6.432-5.208-13.008h3.048l3.72 10.08 3.864-10.08h2.832Zm2.233 15.864v-2.352h1.152c.656 0 1.168-.16 1.536-.48.368-.32.536-.784.504-1.392l-.24-3.84c-.064-.992.2-1.784.792-2.376.608-.608 1.44-.912 2.496-.912v.12c-1.072 0-1.904-.296-2.496-.888-.592-.592-.856-1.384-.792-2.376l.24-3.84c.032-.64-.136-1.112-.504-1.416-.352-.304-.864-.456-1.536-.456h-1.152V4.08h1.368c.928 0 1.728.16 2.4.48.672.32 1.184.792 1.536 1.416.368.608.52 1.336.456 2.184l-.24 3.84c-.032.752.104 1.304.408 1.656.32.352.92.528 1.8.528h2.736v2.352h-2.736c-.88 0-1.48.184-1.8.552-.304.352-.44.896-.408 1.632l.24 3.816c.064.848-.088 1.576-.456 2.184a3.385 3.385 0 0 1-1.536 1.416c-.672.336-1.472.504-2.4.504h-1.368Z" fill="#404040"/></svg>