<svg width="24" height="25" viewBox="0 0 24 25" fill="none" xmlns="http://www.w3.org/2000/svg">
<path fill-rule="evenodd" clip-rule="evenodd" d="M0.404374 0.440081C0.66363 0.181147 1.01506 0.0357069 1.38148 0.0357069C1.74789 0.0357069 2.09933 0.181147 2.35858 0.440081L11.9821 10.0636L21.6057 0.440081C21.7323 0.304232 21.8849 0.195272 22.0546 0.119699C22.2242 0.0441265 22.4073 0.00349086 22.5929 0.000215189C22.7786 -0.00306048 22.963 0.031091 23.1352 0.100633C23.3073 0.170176 23.4637 0.273683 23.595 0.404982C23.7263 0.53628 23.8298 0.692679 23.8994 0.864849C23.9689 1.03702 24.0031 1.22143 23.9998 1.40709C23.9965 1.59274 23.9559 1.77584 23.8803 1.94545C23.8047 2.11506 23.6958 2.26771 23.5599 2.39429L13.9364 12.0179L23.5599 21.6414C23.6958 21.768 23.8047 21.9207 23.8803 22.0903C23.9559 22.2599 23.9965 22.443 23.9998 22.6286C24.0031 22.8143 23.9689 22.9987 23.8994 23.1709C23.8298 23.343 23.7263 23.4994 23.595 23.6307C23.4637 23.762 23.3073 23.8655 23.1352 23.9351C22.963 24.0046 22.7786 24.0388 22.5929 24.0355C22.4073 24.0322 22.2242 23.9916 22.0546 23.916C21.8849 23.8404 21.7323 23.7315 21.6057 23.5956L11.9821 13.9721L2.35858 23.5956C2.09647 23.8399 1.74979 23.9728 1.39158 23.9665C1.03336 23.9602 0.69159 23.8151 0.438256 23.5617C0.184922 23.3084 0.0398093 22.9666 0.0334891 22.6084C0.0271689 22.2502 0.160134 21.9035 0.404374 21.6414L10.0279 12.0179L0.404374 2.39429C0.14544 2.13504 0 1.7836 0 1.41719C0 1.05077 0.14544 0.699337 0.404374 0.440081Z" fill="#FF2970"/>
</svg>
