<svg width="24" height="24" viewBox="0 0 24 24" fill="none" xmlns="http://www.w3.org/2000/svg">
<path d="M15.5999 0.9C15.5999 0.661305 15.6948 0.432387 15.8635 0.263604C16.0323 0.0948212 16.2612 0 16.4999 0H23.0999C23.3386 0 23.5676 0.0948212 23.7363 0.263604C23.9051 0.432387 23.9999 0.661305 23.9999 0.9V7.5C23.9999 7.73869 23.9051 7.96761 23.7363 8.1364C23.5676 8.30518 23.3386 8.4 23.0999 8.4C22.8612 8.4 22.6323 8.30518 22.4635 8.1364C22.2948 7.96761 22.1999 7.73869 22.1999 7.5V3.072L14.7359 10.536C14.6535 10.6244 14.5542 10.6953 14.4438 10.7445C14.3334 10.7937 14.2142 10.8202 14.0934 10.8223C13.9725 10.8244 13.8525 10.8022 13.7404 10.7569C13.6284 10.7117 13.5266 10.6443 13.4411 10.5588C13.3556 10.4734 13.2883 10.3716 13.243 10.2595C13.1977 10.1475 13.1755 10.0274 13.1776 9.90657C13.1798 9.78573 13.2062 9.66655 13.2554 9.55615C13.3046 9.44575 13.3755 9.34639 13.4639 9.264L20.9279 1.8H16.4999C16.2612 1.8 16.0323 1.70518 15.8635 1.5364C15.6948 1.36761 15.5999 1.13869 15.5999 0.9Z" fill="#404040"/>
<path d="M0 3.3002C0 2.141 0.9408 1.2002 2.1 1.2002H12.3C12.5387 1.2002 12.7676 1.29502 12.9364 1.4638C13.1052 1.63258 13.2 1.8615 13.2 2.1002C13.2 2.33889 13.1052 2.56781 12.9364 2.73659C12.7676 2.90537 12.5387 3.0002 12.3 3.0002H2.1C2.02043 3.0002 1.94413 3.0318 1.88787 3.08806C1.83161 3.14432 1.8 3.22063 1.8 3.3002V21.9002C1.8 22.0658 1.9344 22.2002 2.1 22.2002H20.7C20.7796 22.2002 20.8559 22.1686 20.9121 22.1123C20.9684 22.0561 21 21.9798 21 21.9002V11.7002C21 11.4615 21.0948 11.2326 21.2636 11.0638C21.4324 10.895 21.6613 10.8002 21.9 10.8002C22.1387 10.8002 22.3676 10.895 22.5364 11.0638C22.7052 11.2326 22.8 11.4615 22.8 11.7002V21.9002C22.8 22.4571 22.5787 22.9913 22.1849 23.3851C21.7911 23.7789 21.257 24.0002 20.7 24.0002H2.1C1.54305 24.0002 1.0089 23.7789 0.615076 23.3851C0.221249 22.9913 0 22.4571 0 21.9002V3.3002Z" fill="#404040"/>
</svg>
