<svg width="24" height="20" viewBox="0 0 24 20" fill="none" xmlns="http://www.w3.org/2000/svg">
<path fill-rule="evenodd" clip-rule="evenodd" d="M0 1.28571C0 0.944722 0.135459 0.617695 0.376577 0.376577C0.617695 0.135459 0.944722 0 1.28571 0H22.7143C22.8831 -3.55809e-09 23.0503 0.0332559 23.2063 0.097869C23.3623 0.162482 23.504 0.257187 23.6234 0.376577C23.7428 0.495966 23.8375 0.637703 23.9021 0.793693C23.9667 0.949683 24 1.11687 24 1.28571C24 1.45456 23.9667 1.62175 23.9021 1.77774C23.8375 1.93373 23.7428 2.07546 23.6234 2.19485C23.504 2.31424 23.3623 2.40895 23.2063 2.47356C23.0503 2.53817 22.8831 2.57143 22.7143 2.57143H1.28571C0.944722 2.57143 0.617695 2.43597 0.376577 2.19485C0.135459 1.95373 0 1.62671 0 1.28571ZM0 9.85714C0 9.51615 0.135459 9.18912 0.376577 8.948C0.617695 8.70689 0.944722 8.57143 1.28571 8.57143H22.7143C23.0553 8.57143 23.3823 8.70689 23.6234 8.948C23.8645 9.18912 24 9.51615 24 9.85714C24 10.1981 23.8645 10.5252 23.6234 10.7663C23.3823 11.0074 23.0553 11.1429 22.7143 11.1429H1.28571C0.944722 11.1429 0.617695 11.0074 0.376577 10.7663C0.135459 10.5252 0 10.1981 0 9.85714ZM1.28571 17.1429C0.944722 17.1429 0.617695 17.2783 0.376577 17.5194C0.135459 17.7606 0 18.0876 0 18.4286C0 18.7696 0.135459 19.0966 0.376577 19.3377C0.617695 19.5788 0.944722 19.7143 1.28571 19.7143H22.7143C23.0553 19.7143 23.3823 19.5788 23.6234 19.3377C23.8645 19.0966 24 18.7696 24 18.4286C24 18.0876 23.8645 17.7606 23.6234 17.5194C23.3823 17.2783 23.0553 17.1429 22.7143 17.1429H1.28571Z" fill="#00CF91"/>
</svg>
