<svg width="24" height="24" viewBox="0 0 24 24" fill="none" xmlns="http://www.w3.org/2000/svg">
<circle cx="12" cy="12" r="11.5" fill="#101010" stroke="#FF2970"/>
<path fill-rule="evenodd" clip-rule="evenodd" d="M9.68209 5.58194C9.81534 5.44865 9.97975 5.35071 10.1604 5.29699C10.3411 5.24327 10.5323 5.23547 10.7167 5.2743C10.9011 5.31313 11.073 5.39736 11.2166 5.51935C11.3603 5.64135 11.4713 5.79726 11.5395 5.97297L11.9493 7.02758C12.1544 7.55517 12.4788 8.02813 12.8972 8.40944C13.3156 8.79074 13.8165 9.07005 14.3608 9.22549L16.9239 9.9577C17.1136 10.0119 17.2858 10.1147 17.4236 10.2559C17.5614 10.3971 17.6599 10.5718 17.7094 10.7628C17.7589 10.9537 17.7577 11.1543 17.7059 11.3447C17.6541 11.5351 17.5534 11.7086 17.414 11.8481L14.9739 14.2875L18.5955 17.9097C18.6432 17.9541 18.6814 18.0077 18.708 18.0673C18.7345 18.1269 18.7488 18.1912 18.7499 18.2564C18.7511 18.3215 18.7391 18.3863 18.7147 18.4468C18.6902 18.5072 18.6539 18.5621 18.6078 18.6083C18.5617 18.6544 18.5068 18.6907 18.4463 18.7151C18.3858 18.7395 18.3211 18.7515 18.2559 18.7504C18.1907 18.7492 18.1264 18.735 18.0668 18.7084C18.0073 18.6819 17.9537 18.6436 17.9092 18.5959L14.2877 14.9744L11.8483 17.4138C11.7088 17.5533 11.5352 17.6539 11.3449 17.7057C11.1545 17.7575 10.9539 17.7588 10.763 17.7093C10.572 17.6597 10.3972 17.5612 10.256 17.4234C10.1148 17.2857 10.0121 17.1134 9.95788 16.9237L9.22567 14.36C9.0701 13.8158 8.79073 13.3151 8.40944 12.8968C8.02814 12.4786 7.55525 12.1542 7.02776 11.9491L5.9725 11.5393C5.79685 11.471 5.641 11.36 5.51907 11.2163C5.39714 11.0726 5.31299 10.9008 5.27422 10.7163C5.23546 10.5319 5.24332 10.3407 5.29708 10.1601C5.35084 9.97948 5.44881 9.81512 5.58212 9.68191L9.68209 5.58194ZM13.9478 13.9411L13.9446 13.9444L13.9413 13.9476L11.1614 16.7269C11.1415 16.7468 11.1167 16.7612 11.0895 16.7685C11.0623 16.7759 11.0337 16.7761 11.0064 16.7691C10.9792 16.762 10.9542 16.7479 10.934 16.7283C10.9139 16.7086 10.8992 16.684 10.8914 16.657L10.1599 14.0933C9.96316 13.405 9.60984 12.7716 9.12757 12.2426C8.6453 11.7136 8.04715 11.3034 7.37994 11.044L6.32468 10.6336C6.29958 10.6238 6.27731 10.608 6.25989 10.5874C6.24247 10.5669 6.23045 10.5423 6.22492 10.516C6.21939 10.4896 6.22052 10.4623 6.22822 10.4365C6.23592 10.4107 6.24994 10.3872 6.26901 10.3681L10.369 6.26883C10.388 6.24976 10.4115 6.23574 10.4373 6.22804C10.4631 6.22034 10.4904 6.21921 10.5168 6.22474C10.5431 6.23027 10.5677 6.24228 10.5882 6.25971C10.6088 6.27713 10.6247 6.2994 10.6344 6.3245L11.0442 7.37976C11.3037 8.04682 11.7139 8.64482 12.2429 9.12697C12.7719 9.60912 13.4053 9.96235 14.0935 10.159L16.6572 10.8912C16.6842 10.899 16.7088 10.9137 16.7285 10.9339C16.7481 10.954 16.7622 10.979 16.7692 11.0063C16.7763 11.0335 16.7761 11.0622 16.7687 11.0893C16.7613 11.1165 16.747 11.1413 16.7271 11.1612L13.9478 13.9411Z" fill="#FF2970"/>
</svg>
