<svg width="24" height="14" viewBox="0 0 24 14" fill="none" xmlns="http://www.w3.org/2000/svg">
<path fill-rule="evenodd" clip-rule="evenodd" d="M23.6245 12.8908C23.8649 12.6501 24 12.3237 24 11.9834C24 11.6431 23.8649 11.3168 23.6245 11.076L12.924 0.375527C12.6832 0.135065 12.3569 0 12.0166 0C11.6763 0 11.3499 0.135065 11.1092 0.375527L0.408687 11.076C0.282529 11.1936 0.181342 11.3353 0.11116 11.4928C0.0409787 11.6504 0.00324183 11.8204 0.000199838 11.9928C-0.00284216 12.1652 0.0288731 12.3365 0.0934544 12.4964C0.158036 12.6562 0.25416 12.8015 0.376092 12.9234C0.498024 13.0453 0.643266 13.1415 0.803154 13.2061C0.963042 13.2706 1.1343 13.3024 1.30671 13.2993C1.47912 13.2963 1.64915 13.2585 1.80666 13.1883C1.96417 13.1182 2.10594 13.017 2.22349 12.8908L12.0166 3.09773L21.8097 12.8908C22.0504 13.1313 22.3768 13.2663 22.7171 13.2663C23.0573 13.2663 23.3837 13.1313 23.6245 12.8908Z" fill="#00CF91"/>
</svg>
